<svg xmlns="http://www.w3.org/2000/svg" xmlns:xlink="http://www.w3.org/1999/xlink" width="560" height="130" viewBox="0 0 560 130">
  <defs>
    <clipPath id="clip-Logo_Mobit_Inverted">
      <rect width="560" height="130"/>
    </clipPath>
  </defs>
  <g id="Logo_Mobit_Inverted" clip-path="url(#clip-Logo_Mobit_Inverted)">
    <g id="txt_t" transform="translate(504)">
      <path id="Path_10" data-name="Path 10" d="M546.032,130.109c-26.753,0-38.032-24.918-38.032-39.8v-79.3C508-.128,518.008.11,518.008.11s10.008-.187,10.008,10.9v24.02h23.019c0,7.6-6.768,21.018-23.019,21.018V90.3c0,12.381,11.089,19.474,18.015,19.474h7.006c11.035,0,10.98,9.321,10.98,9.321s.1,11.009-10.98,11.009Z" transform="translate(-508 -0.109)" fill="#fff"/>
    </g>
    <g id="txt_i" transform="translate(468 0)">
      <circle id="Ellipse_1" data-name="Ellipse 1" cx="11" cy="11" r="11" fill="#fff"/>
      <path id="Path_9" data-name="Path 9" d="M470,41c0-1.141.911-11,11-11s11,9.772,11,11v78c0,1.832-2.209,11-11,11s-11-9.162-11-11Z" transform="translate(-470)" fill="#fff"/>
    </g>
    <g id="txt_b" transform="translate(375)">
      <path id="txt_b-2" data-name="txt_b" d="M38.5,130a40.661,40.661,0,0,1-26.413-10.126C4.291,113.031,0,103.92,0,94.219V10.563a11.211,11.211,0,0,1,2.652-7.3A9.511,9.511,0,0,1,10.057,0a9.559,9.559,0,0,1,7.427,3.294,11.17,11.17,0,0,1,2.674,7.269V42.194l.712-.323a47.072,47.072,0,0,1,6-2.08,54.37,54.37,0,0,1,14.372-2.076,35.21,35.21,0,0,1,18.526,4.828,41.963,41.963,0,0,1,10.247,8.594,36.571,36.571,0,0,1,5.664,9,33.513,33.513,0,0,1,2.938,12.917V94.219a31.982,31.982,0,0,1-3.574,14.835,35.611,35.611,0,0,1-9.307,11.269,43.12,43.12,0,0,1-12.909,7.168A43.658,43.658,0,0,1,38.5,130Zm.739-72.57a20.157,20.157,0,0,0-13.6,5.517,19.834,19.834,0,0,0-4,5.056,10.932,10.932,0,0,0-1.471,5.049V94.219c0,3.852,2.126,7.8,5.834,10.846a21.249,21.249,0,0,0,13.243,4.776,21.371,21.371,0,0,0,13.317-4.9,18.221,18.221,0,0,0,4.28-4.991,11.619,11.619,0,0,0,1.626-5.732V73.053c0-3.849-2.027-7.772-5.562-10.765A21.107,21.107,0,0,0,39.235,57.43Z" fill="#fff"/>
    </g>
    <g id="txt_o" transform="translate(279 35)">
      <path id="txt_o-2" data-name="txt_o" d="M41.061,95h-.129A41.081,41.081,0,0,1,12.059,83.664,38.641,38.641,0,0,1,3.247,70.479,46.026,46.026,0,0,1,0,53.058V41.942A46.443,46.443,0,0,1,3.184,24.6a38.216,38.216,0,0,1,21.7-21.638A43.511,43.511,0,0,1,40.931,0a43.508,43.508,0,0,1,16.05,2.965A38.228,38.228,0,0,1,78.678,24.6a46.46,46.46,0,0,1,3.184,17.338V53.058A46.7,46.7,0,0,1,78.626,70.62,38.331,38.331,0,0,1,69.846,83.8C62.446,91.024,52.223,95,41.061,95Zm-.13-74.787a19.288,19.288,0,0,0-10.6,2.922,20,20,0,0,0-6.312,6.67,27.357,27.357,0,0,0-3.8,12.137V53.058a27.213,27.213,0,0,0,3.624,12.126,19.438,19.438,0,0,0,6.294,6.679,19.764,19.764,0,0,0,10.8,2.923,19.9,19.9,0,0,0,10.8-2.894,19.291,19.291,0,0,0,6.294-6.633,27.257,27.257,0,0,0,3.625-12.2V41.942a26.932,26.932,0,0,0-3.8-12.27,19.712,19.712,0,0,0-6.314-6.588A19.522,19.522,0,0,0,40.931,20.213Z" transform="translate(0 0)" fill="#fff"/>
    </g>
    <g id="txt_m" transform="translate(131 35)">
      <path id="txt_m-2" data-name="txt_m" d="M197.613,48.057C200.11,43.565,208.178,35,225.581,35S264,49.222,264,70v49.172S263.956,130,253.467,130,243,119.172,243,119.172V70s-1.578-14-17.419-14S208,70,208,70v49.172s-.175,10.775-10.553,10.828S187,119.172,187,119.172V70c0-1.011-3.162-14-17.516-14S152,68.269,152,70v42.631C152,129.948,131,130,131,130V70c2.313-26.38,23.4-35,38.484-35C186.873,35,193.075,43.362,197.613,48.057Z" transform="translate(-131 -35)" fill="#fff"/>
    </g>
    <path id="Icn_Hand" d="M1,58.442C1,47.281,11.638,47.357,11.638,47.357s10.543,0,10.543,11.085V74.566c19.5,0,21.181-18.851,21.181-25.32V12.085C43.362.864,53.8,1,53.8,1S64.543,1,64.543,12.085V49.246a11.476,11.476,0,0,1,9.229-5.715s8.86-.268,8.926,8.622c3.021-3.995,8.659-4.8,8.659-4.8s11.007.165,10.505,11.085a9.683,9.683,0,0,1,10.939-3.61s5.2,1.944,5.2,7.128V84.85C118,100.362,102.746,131,64.543,131,.279,131,1.621,78.617,1,74.566Z" transform="translate(-1 -1)" fill="#fff"/>
  </g>
</svg>
