<svg xmlns="http://www.w3.org/2000/svg" xmlns:xlink="http://www.w3.org/1999/xlink" width="117" height="130" viewBox="0 0 117 130">
  <defs>
    <clipPath id="clip-Logo_Mobit_Hand">
      <rect width="117" height="130"/>
    </clipPath>
  </defs>
  <g id="Logo_Mobit_Hand" clip-path="url(#clip-Logo_Mobit_Hand)">
    <path id="Icn_Hand" d="M1,58.442C1,47.281,11.638,47.357,11.638,47.357s10.543,0,10.543,11.085V74.566c19.5,0,21.181-18.851,21.181-25.32V12.085C43.362.864,53.8,1,53.8,1S64.543,1,64.543,12.085V49.246a11.476,11.476,0,0,1,9.229-5.715s8.86-.268,8.926,8.622c3.021-3.995,8.659-4.8,8.659-4.8s11.007.165,10.505,11.085a9.683,9.683,0,0,1,10.939-3.61s5.2,1.944,5.2,7.128V84.85C118,100.362,102.746,131,64.543,131,.279,131,1.621,78.617,1,74.566Z" transform="translate(-1 -1)" fill="#2f58a5"/>
  </g>
</svg>
